<svg width="60" height="60" viewBox="0 0 60 60" fill="none" xmlns="http://www.w3.org/2000/svg">
<g clip-path="url(#clip0)">
<path d="M47.4484 17.4998V2.49985C47.4484 0.544281 45.1939 -0.668335 43.5615 0.420227L37.4485 4.49524L31.3351 0.420227C30.4956 -0.140076 29.4015 -0.140076 28.562 0.420227L22.4485 4.49524L16.3351 0.420227C14.7032 -0.667877 12.4482 0.544281 12.4482 2.49985V17.4998C12.4482 26.3008 18.9792 33.6017 27.4482 34.8184V60H32.4484V34.8189C40.9175 33.6017 47.4484 26.3008 47.4484 17.4998ZM22.4485 17.4998L34.9482 7.5L32.4484 17.4998H37.4485L24.9484 27.5002L27.4482 17.4998H22.4485Z" fill="#151515"/>
<path d="M27.368 48.7499C26.7505 43.8244 22.5395 39.9998 17.4487 39.9998C12.5955 39.9998 4.79382 46.7797 3.27908 48.1393C2.18822 49.118 2.18822 50.8822 3.27908 51.8604C4.79382 53.22 12.5955 59.9999 17.4487 59.9999C22.5395 59.9999 26.7505 56.1758 27.368 51.2498H14.9488V48.7499H27.368Z" fill="#151515"/>
<path d="M56.6187 48.1393C55.1039 46.7802 47.3023 39.9998 42.4486 39.9998C37.3583 39.9998 33.1473 43.8239 32.5298 48.7499H44.9489V51.2498H32.5298C33.1473 56.1758 37.3583 59.9999 42.4486 59.9999C47.3023 59.9999 55.1039 53.22 56.6187 51.8604C57.7095 50.8822 57.7095 49.118 56.6187 48.1393Z" fill="#151515"/>
</g>
<defs>
<clipPath id="clip0">
<rect width="60" height="60" fill="white"/>
</clipPath>
</defs>
</svg>
