<svg width="60" height="60" viewBox="0 0 60 60" fill="none" xmlns="http://www.w3.org/2000/svg">
<g clip-path="url(#clip0)">
<path d="M47.6103 49.4537C45.3189 49.4537 43.3651 50.9233 42.6395 52.9692H34.9706C34.4402 51.4735 33.2529 50.2867 31.7575 49.7561V43.5421H44.6007C45.5714 43.5421 46.3584 42.7551 46.3584 41.7844V1.75771C46.3584 0.786985 45.5714 0 44.6007 0H15.3991C14.4284 0 13.6414 0.786985 13.6414 1.75771V41.7844C13.6414 42.7551 14.4284 43.5421 15.3991 43.5421H28.2422V49.7561C26.7469 50.2867 25.5596 51.4735 25.0291 52.9692H17.3601C16.6346 50.9233 14.6808 49.4537 12.3893 49.4537C9.48174 49.4537 7.11621 51.8193 7.11621 54.7269C7.11621 57.6345 9.48174 60 12.3893 60C14.6808 60 16.6346 58.5304 17.3601 56.4846H25.029C25.7546 58.5304 27.7084 60 29.9998 60C32.2913 60 34.2451 58.5304 34.9706 56.4846H42.6395C43.3651 58.5304 45.3189 60 47.6103 60C50.5179 60 52.8834 57.6345 52.8834 54.7269C52.8834 51.8193 50.518 49.4537 47.6103 49.4537ZM37.3002 32.4641C36.3121 32.4641 35.5806 31.6566 35.5378 30.7017C35.4951 29.7499 36.3783 28.9393 37.3002 28.9393C38.2883 28.9393 39.0198 29.7468 39.0626 30.7017C39.1052 31.6534 38.2222 32.4641 37.3002 32.4641ZM22.6995 9.32031H37.3003C38.271 9.32031 39.058 10.1073 39.058 11.078C39.058 12.0487 38.271 12.8357 37.3003 12.8357H22.6995C21.7288 12.8357 20.9418 12.0487 20.9418 11.078C20.9418 10.1073 21.7288 9.32031 22.6995 9.32031ZM22.6995 17.0952H37.3003C38.271 17.0952 39.058 17.8822 39.058 18.853C39.058 19.8237 38.271 20.6107 37.3003 20.6107H22.6995C21.7288 20.6107 20.9418 19.8237 20.9418 18.853C20.9418 17.8822 21.7288 17.0952 22.6995 17.0952ZM22.6995 32.4641C21.7114 32.4641 20.9799 31.6566 20.9371 30.7017C20.8944 29.7499 21.7776 28.9393 22.6995 28.9393C23.6875 28.9393 24.4191 29.7468 24.4619 30.7017C24.5045 31.6534 23.6213 32.4641 22.6995 32.4641ZM28.2374 30.7017C28.1948 29.7499 29.078 28.9393 29.9998 28.9393C30.9879 28.9393 31.7195 29.7468 31.7622 30.7017C31.8049 31.6534 30.9217 32.4641 29.9998 32.4641C29.0118 32.4641 28.2802 31.6566 28.2374 30.7017Z" fill="black"/>
</g>
<defs>
<clipPath id="clip0">
<rect width="60" height="60" fill="white"/>
</clipPath>
</defs>
</svg>
