<svg width="60" height="60" viewBox="0 0 60 60" fill="none" xmlns="http://www.w3.org/2000/svg">
<g clip-path="url(#clip0)">
<path d="M58.1062 22.5746L51.758 20.9875L55.1244 15.3763C55.7149 14.393 55.5597 13.1332 54.7485 12.3225L47.6775 5.25146C46.8663 4.43985 45.607 4.28513 44.6237 4.87564L39.0125 8.24203L37.4254 1.89377C37.1471 0.780945 36.1473 0 35.0002 0H24.9998C23.8527 0 22.8529 0.780945 22.5746 1.89377L20.9875 8.24203L15.3763 4.87518C14.393 4.28513 13.1332 4.43985 12.3225 5.25146L5.25146 12.3225C4.43985 13.1337 4.28513 14.393 4.87518 15.3763L8.24203 20.9875L1.89377 22.5746C0.780945 22.8529 0 23.8527 0 24.9998V35.0002C0 36.1473 0.780945 37.1471 1.89377 37.4254L8.24203 39.0125L4.87564 44.6237C4.28513 45.607 4.44031 46.8668 5.25146 47.6775L12.3225 54.7485C13.1332 55.5597 14.3925 55.7144 15.3763 55.1244L20.9875 51.758L22.5746 58.1062C22.8529 59.2191 23.8527 60 24.9998 60H35.0002C36.1473 60 37.1471 59.2191 37.4254 58.1062L39.0125 51.758L44.6237 55.1244C45.607 55.7149 46.8668 55.5602 47.6775 54.7485L54.7485 47.6775C55.5597 46.8663 55.7149 45.607 55.1244 44.6237L51.758 39.0125L58.1062 37.4254C59.2191 37.1471 60 36.1473 60 35.0002V24.9998C60 23.8527 59.2191 22.8529 58.1062 22.5746ZM30 45C21.7287 45 15 38.2713 15 30C15 21.7287 21.7287 15 30 15C38.2713 15 45 21.7287 45 30C45 38.2713 38.2713 45 30 45Z" fill="#151515"/>
<path d="M35.0002 20.0001L22.5 30H27.5002L24.9998 39.9998L37.5 30H32.4998L35.0002 20.0001Z" fill="#151515"/>
</g>
<defs>
<clipPath id="clip0">
<rect width="60" height="60" fill="white"/>
</clipPath>
</defs>
</svg>
