<svg width="60" height="61" viewBox="0 0 60 61" fill="none" xmlns="http://www.w3.org/2000/svg">
<g clip-path="url(#clip0)">
<path d="M25.5084 35.6896H15.7021L18.202 45.6894H27.7999L25.5084 35.6896Z" fill="black"/>
<path d="M19.4521 50.6896L21.952 60.6894H31.2373L28.9457 50.6896H19.4521Z" fill="black"/>
<path d="M42.4256 37.5833C42.1473 36.4701 41.1475 35.6896 40.0004 35.6896H30.6382L32.9297 45.6894H44.4521L42.4256 37.5833Z" fill="black"/>
<path d="M45.7024 50.6896H34.0752L36.3668 60.6894H45.0002C46.6005 60.6894 47.8136 59.1362 47.4259 57.5835L45.7024 50.6896Z" fill="black"/>
<path d="M10.5483 35.6896H2.50035C1.73039 35.6896 1.00346 36.0443 0.529679 36.6509C0.0558933 37.2579 -0.112106 38.0493 0.0746617 38.796L1.79814 45.6894H13.0481L10.5483 35.6896Z" fill="black"/>
<path d="M3.04834 50.6896L5.07486 58.7957C5.35364 59.9089 6.35294 60.6894 7.50009 60.6894H16.7982L14.2983 50.6896H3.04834Z" fill="black"/>
<path d="M45 8.18921C40.8646 8.18921 37.5 11.5538 37.5 15.6892C37.5 19.8246 40.8646 23.1892 45 23.1892C49.1359 23.1892 52.5 19.8246 52.5 15.6892C52.5 11.5538 49.1359 8.18921 45 8.18921Z" fill="black"/>
<path d="M42.5 0.689453H47.5002V5.68961H42.5V0.689453Z" fill="black"/>
<path d="M32.625 6.84958L36.1603 3.31427L39.6961 6.84958L36.1603 10.3853L32.625 6.84958Z" fill="black"/>
<path d="M30 13.1896H35.0002V18.1897H30V13.1896Z" fill="black"/>
<path d="M32.626 24.5303L36.1617 20.9945L39.6971 24.5303L36.1617 28.0656L32.626 24.5303Z" fill="black"/>
<path d="M42.5 25.6899H47.5002V30.6896H42.5V25.6899Z" fill="black"/>
<path d="M50.3018 24.5264L53.8375 20.9911L57.3728 24.5264L53.8375 28.0622L50.3018 24.5264Z" fill="black"/>
<path d="M55 13.1901H59.9997V18.1902H55V13.1901Z" fill="black"/>
<path d="M50.3013 6.849L53.8361 3.31323L57.3723 6.84808L53.837 10.3843L50.3013 6.849Z" fill="black"/>
</g>
<defs>
<clipPath id="clip0">
<rect width="60" height="60" fill="white" transform="translate(0 0.689453)"/>
</clipPath>
</defs>
</svg>
