<svg width="61" height="61" viewBox="0 0 61 61" fill="none" xmlns="http://www.w3.org/2000/svg">
<path d="M27.9985 18.9922C27.9985 14.1922 30.3985 9.99219 33.9985 6.99219H30.9985C19.2985 6.99219 9.99854 9.69219 9.99854 12.9922C9.99854 15.9922 17.7985 18.3922 27.9985 18.9922ZM39.3985 33.3922C36.6985 33.6922 33.6985 33.9922 30.9985 33.9922C19.2985 33.9922 9.99854 31.2922 9.99854 27.9922V36.9922C9.99854 40.2922 19.2985 42.9922 30.9985 42.9922C42.6985 42.9922 51.9985 40.2922 51.9985 36.9922V30.9922C49.2985 33.0922 46.2985 33.9922 42.9985 33.9922C41.7985 33.9922 40.5985 33.6922 39.3985 33.3922ZM30.9985 45.9922C19.2985 45.9922 9.99854 43.2922 9.99854 39.9922V48.9922C9.99854 52.2922 19.2985 54.9922 30.9985 54.9922C42.6985 54.9922 51.9985 52.2922 51.9985 48.9922V39.9922C51.9985 43.2922 42.6985 45.9922 30.9985 45.9922ZM30.9985 30.9922H33.9985C30.9985 28.8922 28.8985 25.5922 28.2985 21.9922C18.0985 21.6922 9.99854 18.9922 9.99854 15.9922V24.9922C9.99854 28.2922 19.2985 30.9922 30.9985 30.9922ZM42.9985 30.9922C49.5985 30.9922 54.9985 25.5922 54.9985 18.9922C54.9985 12.3922 49.5985 6.99219 42.9985 6.99219C36.3985 6.99219 30.9985 12.3922 30.9985 18.9922C30.9985 25.5922 36.3985 30.9922 42.9985 30.9922ZM36.0985 17.7922L41.1985 22.8922L49.8985 14.1922L51.9985 16.2922L41.1985 27.0922L33.9985 19.8922L36.0985 17.7922Z" fill="white"/>
</svg>
