<svg width="60" height="61" viewBox="0 0 60 61" fill="none" xmlns="http://www.w3.org/2000/svg">
<g clip-path="url(#clip0)">
<g clip-path="url(#clip1)">
<path d="M23.578 0.689453L23.2686 2.56448H7.49989V12.8769C7.49989 13.3947 7.0802 13.8144 6.56245 13.8144C6.04469 13.8144 5.625 13.3947 5.625 12.8769V1.6269C5.62487 1.10915 6.04469 0.689453 6.56245 0.689453L23.578 0.689453Z" fill="#151515"/>
<path d="M54.3752 1.6269V12.8769C54.3752 13.3947 53.9555 13.8144 53.4377 13.8144C52.92 13.8144 52.5003 13.3947 52.5003 12.8769V2.56448H35.8032L35.4751 0.689453H53.4376C53.9553 0.689453 54.3752 1.10915 54.3752 1.6269Z" fill="#151515"/>
<path d="M8.4375 16.627H4.68745C4.16969 16.627 3.75 16.2073 3.75 15.6895C3.75 15.1718 4.16969 14.7521 4.68745 14.7521H8.4375C8.95525 14.7521 9.37495 15.1718 9.37495 15.6895C9.37495 16.2073 8.95525 16.627 8.4375 16.627Z" fill="#151515"/>
<path d="M8.4375 19.4392H4.68745C4.16969 19.4392 3.75 19.0195 3.75 18.5018C3.75 17.984 4.16969 17.5643 4.68745 17.5643H8.4375C8.95525 17.5643 9.37495 17.984 9.37495 18.5018C9.37495 19.0195 8.95525 19.4392 8.4375 19.4392Z" fill="#151515"/>
<path d="M8.4375 22.2515H4.68745C4.16969 22.2515 3.75 21.8318 3.75 21.314C3.75 20.7963 4.16969 20.3766 4.68745 20.3766H8.4375C8.95525 20.3766 9.37495 20.7963 9.37495 21.314C9.37495 21.8318 8.95525 22.2515 8.4375 22.2515Z" fill="#151515"/>
<path d="M30.7686 23.8272L39.2997 33.7084L36.4498 17.2553L30.7686 23.8272Z" fill="#151515"/>
<path d="M34.5096 16.6271H24.5439L29.5315 22.4021L34.5096 16.6271Z" fill="#151515"/>
<path d="M29.531 25.2612L20.7935 35.3769H38.2591L29.531 25.2612Z" fill="#151515"/>
<path d="M28.2936 7.58034L24.9748 3.75525L23.4092 13.2053L28.2936 7.58034Z" fill="#151515"/>
<path d="M24.5532 14.7516H34.5096L29.5314 9.00476L24.5532 14.7516Z" fill="#151515"/>
<path d="M37.9031 37.2521H21.1875L29.625 44.8458L37.9031 37.2521Z" fill="#151515"/>
<path d="M28.2936 23.827L22.7248 17.377L20.0811 33.3333L28.2936 23.827Z" fill="#151515"/>
<path d="M42.3282 58.8143L29.6344 47.3862L17.175 58.8143H0V60.6893H60V58.8143H42.3282Z" fill="#151515"/>
<path d="M31.022 46.1117L43.3782 57.2399L40.022 37.8617L31.022 46.1117Z" fill="#151515"/>
<path d="M30.7686 7.57978L35.7654 13.336L34.1061 3.73596L30.7686 7.57978Z" fill="#151515"/>
<path d="M29.5314 6.14587L32.6345 2.56464H26.4282L29.5314 6.14587Z" fill="#151515"/>
<path d="M28.2373 46.1205L19.303 38.0674L16.1343 57.2206L28.2373 46.1205Z" fill="#151515"/>
<path d="M55.3125 16.627H51.5624C51.0447 16.627 50.625 16.2073 50.625 15.6895C50.625 15.1718 51.0447 14.7521 51.5624 14.7521H55.3125C55.8303 14.7521 56.2499 15.1718 56.2499 15.6895C56.2499 16.2073 55.8303 16.627 55.3125 16.627Z" fill="#151515"/>
<path d="M55.3125 19.4392H51.5624C51.0447 19.4392 50.625 19.0195 50.625 18.5018C50.625 17.984 51.0447 17.5643 51.5624 17.5643H55.3125C55.8303 17.5643 56.2499 17.984 56.2499 18.5018C56.2499 19.0195 55.8303 19.4392 55.3125 19.4392Z" fill="#151515"/>
<path d="M55.3125 22.2515H51.5624C51.0447 22.2515 50.625 21.8318 50.625 21.314C50.625 20.7963 51.0447 20.3766 51.5624 20.3766H55.3125C55.8303 20.3766 56.2499 20.7963 56.2499 21.314C56.2499 21.8318 55.8303 22.2515 55.3125 22.2515Z" fill="#151515"/>
</g>
</g>
<defs>
<clipPath id="clip0">
<rect width="60" height="60" fill="white" transform="translate(0 0.689453)"/>
</clipPath>
<clipPath id="clip1">
<rect width="60" height="59.9999" fill="white" transform="translate(0 0.689453)"/>
</clipPath>
</defs>
</svg>
