<svg width="60" height="61" viewBox="0 0 60 61" fill="none" xmlns="http://www.w3.org/2000/svg">
<path d="M38.16 6.99112C38.61 6.93112 38.94 7.05112 39.39 7.20112C41.07 7.77112 41.88 9.57112 41.37 11.2511C40.86 12.9011 38.37 20.3711 38.37 21.9911C38.37 23.5811 40.62 24.9911 42.42 24.9911H51.42C53.22 24.9911 54.42 26.1911 54.42 27.9911C54.42 29.7911 48.42 48.9911 48.42 48.9911C47.91 50.1611 46.77 51.9911 45.42 51.9911H18V24.9911H24.42C25.65 23.7611 34.32 10.8611 35.16 9.18112C35.79 7.95112 36.96 7.14112 38.16 6.99112ZM6 24.9911H12V51.9911H6V24.9911Z" fill="white"/>
</svg>
