<svg width="20" height="21" viewBox="0 0 20 21" fill="none" xmlns="http://www.w3.org/2000/svg">
<path d="M17.1309 5.16211L15.0508 3.08398C14.7969 2.83008 14.457 2.6875 14.0977 2.6875C13.7383 2.6875 13.3984 2.82813 13.1445 3.08398L10.9043 5.32031C10.6504 5.57422 10.5078 5.91602 10.5078 6.27539C10.5078 6.63672 10.6484 6.97461 10.9043 7.23047L12.6543 8.98242C12.2556 9.9113 11.6828 10.7553 10.9668 11.4688C10.25 12.1895 9.41211 12.7578 8.48242 13.1602L6.73242 11.4082C6.47852 11.1543 6.13867 11.0117 5.7793 11.0117C5.60204 11.0111 5.42643 11.0458 5.26276 11.1139C5.0991 11.182 4.95067 11.282 4.82617 11.4082L2.58398 13.6445C2.33008 13.8984 2.1875 14.2402 2.1875 14.5996C2.1875 14.9609 2.32813 15.2988 2.58398 15.5547L4.66211 17.6328C5.0957 18.0664 5.69336 18.3145 6.30664 18.3145C6.43359 18.3145 6.55664 18.3047 6.68164 18.2832C9.26758 17.8574 11.834 16.4805 13.9062 14.4102C15.9766 12.3359 17.3516 9.76953 17.7812 7.18164C17.9043 6.44727 17.6582 5.69141 17.1309 5.16211ZM16.3965 6.94922C16.0156 9.25195 14.7773 11.5488 12.9121 13.4141C11.0469 15.2793 8.75195 16.5176 6.44922 16.8984C6.16016 16.9473 5.86328 16.8496 5.65234 16.6406L3.61133 14.5996L5.77539 12.4336L8.11523 14.7773L8.13281 14.7949L8.55469 14.6387C9.83384 14.1684 10.9954 13.4255 11.959 12.4617C12.9225 11.4978 13.6649 10.336 14.1348 9.05664L14.291 8.63477L11.9316 6.27734L14.0957 4.11133L16.1367 6.15234C16.3477 6.36328 16.4453 6.66016 16.3965 6.94922Z" fill="white"/>
</svg>
