<svg width="60" height="60" viewBox="0 0 60 60" fill="none" xmlns="http://www.w3.org/2000/svg">
<path d="M7.14844 15.3225C7.14844 10.5298 8.62125 5.93953 11.4108 2.04621L8.55094 0C5.33402 4.49238 3.63281 9.7916 3.63281 15.3225C3.63281 21.607 5.8902 27.6993 9.98941 32.4766L12.6571 30.1867C9.10535 26.0479 7.14844 20.7676 7.14844 15.3225Z" fill="#151515"/>
<path d="M51.4489 0L48.5891 2.04621C51.3786 5.93953 52.8514 10.5298 52.8514 15.3225C52.8514 20.7676 50.8945 26.0479 47.3428 30.1867L50.0104 32.4766C54.1096 27.6993 56.367 21.607 56.367 15.3225C56.367 9.7916 54.6658 4.49238 51.4489 0Z" fill="#151515"/>
<path d="M14.1797 15.3225C14.1797 12.0043 15.1993 8.8268 17.1288 6.13172L14.2724 4.08551C11.912 7.37977 10.6641 11.2662 10.6641 15.3225C10.6641 19.9316 12.3206 24.3982 15.3264 27.9019L17.994 25.6119C15.5341 22.7468 14.1797 19.0922 14.1797 15.3225Z" fill="#151515"/>
<path d="M45.7275 4.08551L42.8711 6.13172C44.8006 8.8268 45.8202 12.0043 45.8202 15.3225C45.8202 19.0922 44.4657 22.7468 42.0059 25.6119L44.6735 27.9019C47.6793 24.3982 49.3358 19.9316 49.3358 15.3225C49.3358 11.2662 48.0879 7.37977 45.7275 4.08551Z" fill="#151515"/>
<path d="M21.2109 15.3225C21.2109 13.4806 21.7774 11.7142 22.8503 10.2174L19.9904 8.17114C18.4884 10.2688 17.6953 12.7424 17.6953 15.3225C17.6953 18.2579 18.7493 21.1007 20.6617 23.3288L23.3293 21.0388C21.9628 19.4475 21.2109 17.4185 21.2109 15.3225Z" fill="#151515"/>
<path d="M40.0097 8.17114L37.1498 10.2174C38.2227 11.7142 38.7892 13.4806 38.7892 15.3225C38.7892 17.4185 38.0373 19.4475 36.6709 21.0388L39.3386 23.3288C41.2508 21.1007 42.3048 18.2579 42.3048 15.3225C42.3048 12.7424 41.5117 10.2688 40.0097 8.17114Z" fill="#151515"/>
<path d="M48.7499 56.4844L33.5264 19.2156C34.5915 18.2502 35.2734 16.8701 35.2734 15.3225C35.2734 12.4146 32.9079 10.0491 30 10.0491C27.0921 10.0491 24.7266 12.4146 24.7266 15.3225C24.7266 16.8701 25.4085 18.2502 26.4736 19.2156L11.2501 56.4844H7.14844V60C23.8787 60 36.1017 60 52.8516 60V56.4844H48.7499ZM40.3849 45.3138L32.8153 39.2583L36.6002 36.2304L40.3849 45.3138ZM39.6354 49.2187H20.3646L30 41.5105L39.6354 49.2187ZM29.7186 20.5673C29.8137 20.5725 29.9036 20.5959 30 20.5959C30.0964 20.5959 30.1862 20.5725 30.2814 20.5673L33.2229 28.125H26.777L29.7186 20.5673ZM25.3124 31.6406H34.6876L35.1925 32.8521L30 37.0062L24.8074 32.8522L25.3124 31.6406ZM23.3999 36.2304L27.1848 39.2583L19.6152 45.3138L23.3999 36.2304ZM15.0587 56.4844L16.5236 52.8516H43.4766L44.9415 56.4844H15.0587Z" fill="#151515"/>
</svg>
