<svg width="61" height="58" viewBox="0 0 61 58" fill="none" xmlns="http://www.w3.org/2000/svg">
<path d="M39.7461 40.7452C41.3415 39.2934 47.0108 36.6483 50.089 36.8863C50.8299 36.9436 51.359 37.1632 51.6617 37.539C51.7006 37.5863 51.7354 37.6334 51.7673 37.6801C51.897 37.942 51.8671 38.1335 51.8251 38.2655C51.6104 38.9413 50.3943 40.0104 45.82 41.2674C45.7045 41.2991 45.6065 41.326 45.529 41.348C45.2817 41.4183 45.1382 41.6758 45.2086 41.923C45.279 42.1702 45.5364 42.3137 45.7836 42.2434C45.859 42.2219 45.9542 42.1956 46.0666 42.165C48.4264 41.5166 51.1308 40.6292 52.2571 39.3269C52.4688 39.0821 52.6247 38.8228 52.7123 38.5474C52.7239 38.5108 52.7343 38.4718 52.7439 38.4316C52.7994 38.3807 52.8432 38.3162 52.869 38.2412C53.3968 36.7143 54.6318 34.2997 56.0962 32.6064C56.4398 32.2092 56.7744 31.8796 57.0908 31.6269C57.6359 31.1877 58.6293 30.7977 59.351 30.9032C59.6853 30.952 59.9312 31.0971 60.1029 31.3469C60.4111 31.7977 60.2276 33.473 58.6937 36.7083C57.4904 39.2467 55.7993 41.9727 54.4857 43.4916C54.1066 43.93 53.763 44.2613 53.4921 44.4501C51.8789 45.577 50.486 45.866 49.139 46.1456C47.3677 46.5131 45.5391 46.8925 43.4312 49.1379L37.0847 43.6492C37.1819 43.5299 37.3098 43.3775 37.4779 43.1831C38.272 42.2648 39.4289 41.0314 39.7461 40.7452Z" fill="white"/>
<path d="M35.7925 43.761L36.1445 44.0655L43.1663 50.1382L44.2411 51.0678L41.1966 54.5881L32.748 47.2813L35.7925 43.761ZM40.9926 51.7702C41.1146 51.7614 41.2305 51.7029 41.3109 51.6099C41.3907 51.5176 41.4319 51.3946 41.4231 51.2725C41.4136 51.1497 41.3563 51.0338 41.2634 50.9534C41.1705 50.8731 41.0467 50.8325 40.9246 50.8413C40.8025 50.8502 40.6873 50.9081 40.6069 51.001C40.5265 51.0939 40.4852 51.2171 40.4941 51.3391C40.503 51.4612 40.5615 51.577 40.6545 51.6574C40.7467 51.7372 40.8699 51.7784 40.9926 51.7702Z" fill="white"/>
<path d="M22.3564 40.7452C20.761 39.2934 15.0917 36.6483 12.0136 36.8863C11.2726 36.9436 10.7436 37.1632 10.4408 37.539C10.4019 37.5863 10.3671 37.6334 10.3353 37.6801C10.2055 37.942 10.2354 38.1335 10.2775 38.2655C10.4921 38.9413 11.7082 40.0104 16.2826 41.2674C16.398 41.2991 16.4961 41.326 16.5736 41.348C16.8208 41.4183 16.9643 41.6758 16.8939 41.923C16.8236 42.1702 16.5662 42.3137 16.3189 42.2434C16.2436 42.2219 16.1483 42.1956 16.036 42.165C13.6761 41.5166 10.9718 40.6292 9.84544 39.3269C9.63369 39.0821 9.47786 38.8228 9.39025 38.5474C9.37867 38.5108 9.36826 38.4718 9.35864 38.4316C9.30313 38.3807 9.25937 38.3162 9.23358 38.2412C8.70573 36.7143 7.47074 34.2997 6.0063 32.6064C5.66277 32.2092 5.32813 31.8796 5.01172 31.6269C4.46666 31.1877 3.4732 30.7977 2.7515 30.9032C2.41727 30.952 2.17138 31.0971 1.99962 31.3469C1.69143 31.7977 1.87492 33.473 3.40882 36.7083C4.6121 39.2467 6.30321 41.9727 7.61679 43.4916C7.99594 43.93 8.33957 44.2613 8.61048 44.4501C10.2236 45.577 11.6165 45.866 12.9636 46.1456C14.7348 46.5131 16.5634 46.8925 18.6714 49.1379L25.0178 43.6492C24.9206 43.5299 24.7928 43.3775 24.6246 43.1831C23.8306 42.2648 22.6736 41.0314 22.3564 40.7452Z" fill="white"/>
<path d="M26.3101 43.761L25.958 44.0655L18.9363 50.1382L17.8614 51.0678L20.9059 54.5881L29.3546 47.2813L26.3101 43.761ZM21.1099 51.7702C20.9879 51.7614 20.8721 51.7029 20.7916 51.6099C20.7119 51.5176 20.6706 51.3946 20.6794 51.2725C20.689 51.1497 20.7462 51.0338 20.8391 50.9534C20.9321 50.8731 21.0558 50.8325 21.178 50.8413C21.3 50.8502 21.4153 50.9081 21.4956 51.001C21.576 51.0939 21.6173 51.2171 21.6084 51.3391C21.5995 51.4612 21.541 51.577 21.448 51.6574C21.3558 51.7372 21.2327 51.7784 21.1099 51.7702Z" fill="white"/>
<path d="M32.0289 1.45728C26.9982 1.45728 22.1735 3.44634 18.6163 6.9869C15.059 10.5275 13.0605 15.3295 13.0605 20.3366C13.0605 25.3437 15.059 30.1457 18.6163 33.6863C22.1735 37.2268 26.9982 39.2159 32.0289 39.2159C37.0597 39.2159 41.8843 37.2268 45.4416 33.6863C48.9989 30.1457 50.9973 25.3437 50.9973 20.3366C50.9973 15.3295 48.9989 10.5275 45.4416 6.9869C41.8843 3.44634 37.0597 1.45728 32.0289 1.45728V1.45728ZM38.1831 27.3429C38.1831 28.0771 38.4782 28.6645 38.9418 28.7274C39.4055 28.7903 39.9324 28.2659 40.1643 27.4688L40.5858 27.6366C41.32 28.0272 41.8969 28.6575 42.2192 29.4215C42.5416 30.1855 42.59 31.0367 42.3562 31.832C42.2012 32.5378 41.8188 33.1739 41.2671 33.6435C40.7155 34.1131 40.0248 34.3904 39.3001 34.4332C38.2674 31.8949 34.8531 34.559 31.7971 33.9717C31.1617 33.8125 30.5747 33.5022 30.0864 33.0674C29.5982 32.6326 29.2233 32.0863 28.994 31.4754C31.502 31.2446 35.0006 27.8464 38.1831 27.3429ZM29.9213 25.0984C30.8575 25.0969 31.7615 24.7584 32.4665 24.1454C33.1716 23.5323 33.63 22.6862 33.7572 21.763C34.2041 22.3121 34.4355 23.0039 34.4083 23.71C34.3812 24.4161 34.0974 25.0884 33.6096 25.6018C33.3441 25.8332 33.0318 26.0052 32.6937 26.1061C32.3557 26.207 31.9998 26.2346 31.6502 26.1868C31.3005 26.1391 30.9653 26.0172 30.667 25.8295C30.3687 25.6417 30.1145 25.3924 29.9213 25.0984ZM36.2441 23.5041C37.1082 24.3222 42.5669 23.3783 43.6629 25.7906C41.6607 25.3711 37.4455 27.0702 36.3495 23.5251L36.2441 23.5041ZM33.5675 12.8898V13.4561C32.1975 11.8409 30.7644 11.2116 30.1742 12.2604C29.5841 13.3093 32.2818 14.5889 31.776 16.2041C31.2702 17.8194 29.0994 17.3788 27.8137 19.5814C26.5281 21.784 26.781 24.6579 30.4272 27.28C29.1977 27.1443 28.0352 26.6527 27.0836 25.8659C26.1321 25.0792 25.4333 24.0319 25.0739 22.8538C24.2308 20.3366 24.8842 18.113 23.4299 17.6935C21.4909 17.1061 19.3833 19.7283 19.3833 22.0148C16.7278 19.3717 19.4887 16.0153 16.8542 13.2464C18.5863 9.57565 21.6121 6.66561 25.3573 5.06858C29.1026 3.47156 33.3066 3.29871 37.1715 4.58285C36.0234 5.64189 35.1098 6.92766 34.4893 8.358C33.8687 9.78834 33.5548 11.3318 33.5675 12.8898Z" fill="white"/>
</svg>
