<svg width="16" height="17" viewBox="0 0 16 17" fill="none" xmlns="http://www.w3.org/2000/svg">
<g clip-path="url(#clip0)">
<path d="M11.3335 1.6546H4.66683C2.82588 1.6546 1.3335 3.14699 1.3335 4.98794V11.6546C1.3335 13.4956 2.82588 14.9879 4.66683 14.9879H11.3335C13.1744 14.9879 14.6668 13.4956 14.6668 11.6546V4.98794C14.6668 3.14699 13.1744 1.6546 11.3335 1.6546Z" stroke="#151515" stroke-width="1.33333" stroke-linecap="round" stroke-linejoin="round"/>
<path d="M10.6666 7.90131C10.7488 8.45614 10.6541 9.02278 10.3957 9.52065C10.1374 10.0185 9.72865 10.4222 9.22764 10.6744C8.72662 10.9266 8.15885 11.0144 7.60508 10.9253C7.0513 10.8362 6.53973 10.5747 6.14311 10.1781C5.7465 9.78147 5.48504 9.26989 5.39593 8.71612C5.30682 8.16234 5.3946 7.59457 5.64677 7.09356C5.89894 6.59254 6.30268 6.1838 6.80054 5.92547C7.29841 5.66714 7.86506 5.57237 8.41989 5.65464C8.98583 5.73856 9.50979 6.00228 9.91435 6.40684C10.3189 6.81141 10.5826 7.33536 10.6666 7.90131Z" stroke="#151515" stroke-width="1.33333" stroke-linecap="round" stroke-linejoin="round"/>
<path d="M11.6665 4.6546H11.6736" stroke="#151515" stroke-width="1.33333" stroke-linecap="round" stroke-linejoin="round"/>
</g>
<defs>
<clipPath id="clip0">
<rect width="16" height="16" fill="white" transform="translate(0 0.321289)"/>
</clipPath>
</defs>
</svg>
