<svg width="17" height="18" viewBox="0 0 17 18" fill="none" xmlns="http://www.w3.org/2000/svg">
<path d="M15.9659 4.86877C15.8818 4.5326 15.7104 4.22459 15.4691 3.97585C15.2278 3.72711 14.9252 3.54644 14.5917 3.4521C13.3734 3.1546 8.50008 3.1546 8.50008 3.1546C8.50008 3.1546 3.62675 3.1546 2.40841 3.48044C2.07496 3.57477 1.77231 3.75544 1.53103 4.00418C1.28975 4.25292 1.11839 4.56093 1.03425 4.8971C0.811273 6.13354 0.702205 7.38782 0.708413 8.64419C0.700465 9.91001 0.80954 11.1739 1.03425 12.4196C1.12701 12.7453 1.30221 13.0416 1.54293 13.2799C1.78365 13.5181 2.08174 13.6902 2.40841 13.7796C3.62675 14.1054 8.50008 14.1054 8.50008 14.1054C8.50008 14.1054 13.3734 14.1054 14.5917 13.7796C14.9252 13.6853 15.2278 13.5046 15.4691 13.2559C15.7104 13.0071 15.8818 12.6991 15.9659 12.3629C16.1872 11.1358 16.2962 9.89109 16.2917 8.64419C16.2997 7.37836 16.1906 6.11451 15.9659 4.86877V4.86877Z" stroke="#151515" stroke-width="1.41667" stroke-linecap="round" stroke-linejoin="round"/>
<path d="M6.90625 10.9604L10.9792 8.64419L6.90625 6.32794V10.9604Z" stroke="#151515" stroke-width="1.41667" stroke-linecap="round" stroke-linejoin="round"/>
</svg>
